# xmcd
#
# Track frame offsets: 
#        150
#        10939
#        40279
#        65456
#        101267
#        126297
#        149484
#        170222
#        195178
#        223388
#        265604
#
# Disc length: 3847 seconds
#
# Revision: 0
# Processed by: cddbd v1.5.2PL0 Copyright (c) Steve Scherf et al.
# Submitted via: ExactAudioCopy v1.3
#
DISCID=a10f050b
DTITLE=The Hoochies - Live! Moulin Blues
DYEAR=2019
DGENRE=Rockin' Blues
TTITLE0=Gutbucket
TTITLE1=No Fighting
TTITLE2=Backstreet Crawler
TTITLE3=Let's Get High
TTITLE4=Rubber Band
TTITLE5=Anytime You Want
TTITLE6=So Unfair
TTITLE7=Mambo Boogie
TTITLE8=The Hook
TTITLE9=Double Trouble
TTITLE10=I was Fooled,She Fooled Me
EXTD=
EXTT0=
EXTT1=
EXTT2=
EXTT3=
EXTT4=
EXTT5=
EXTT6=
EXTT7=
EXTT8=
EXTT9=
EXTT10=
PLAYORDER=
